<?xml version="1.0" encoding="UTF-8" standalone="no"?>
<svg
   xmlns:dc="http://purl.org/dc/elements/1.1/"
   xmlns:cc="http://creativecommons.org/ns#"
   xmlns:rdf="http://www.w3.org/1999/02/22-rdf-syntax-ns#"
   xmlns:svg="http://www.w3.org/2000/svg"
   xmlns="http://www.w3.org/2000/svg"
   xmlns:sodipodi="http://sodipodi.sourceforge.net/DTD/sodipodi-0.dtd"
   xmlns:inkscape="http://www.inkscape.org/namespaces/inkscape"
   width="250"
   height="250"
   viewBox="0 0 250 250.00001"
   id="launchpad-svg"
   version="1.1"
   inkscape:version="0.91 r13725"
   sodipodi:docname="octave-controls.svg">
  <metadata
     id="metadata4722">
    <rdf:RDF>
      <cc:Work
         rdf:about="">
        <dc:format>image/svg+xml</dc:format>
        <dc:type
           rdf:resource="http://purl.org/dc/dcmitype/StillImage" />
        <dc:title></dc:title>
      </cc:Work>
    </rdf:RDF>
  </metadata>
  <defs
     id="defs4720">
    <marker
       inkscape:isstock="true"
       style="overflow:visible"
       id="marker8632"
       refX="0"
       refY="0"
       orient="auto"
       inkscape:stockid="StopL">
      <path
         transform="scale(0.8,0.8)"
         style="fill:none;fill-opacity:0.75;fill-rule:evenodd;stroke:#9c9c9c;stroke-width:1pt;stroke-opacity:1"
         d="M 0,5.65 0,-5.65"
         id="path8634"
         inkscape:connector-curvature="0" />
    </marker>
    <marker
       inkscape:isstock="true"
       style="overflow:visible"
       id="marker8238"
       refX="0"
       refY="0"
       orient="auto"
       inkscape:stockid="StopL">
      <path
         transform="scale(0.8,0.8)"
         style="fill:none;fill-opacity:0.75;fill-rule:evenodd;stroke:#000000;stroke-width:1pt;stroke-opacity:1"
         d="M 0,5.65 0,-5.65"
         id="path8240"
         inkscape:connector-curvature="0" />
    </marker>
    <marker
       inkscape:isstock="true"
       style="overflow:visible"
       id="marker8140"
       refX="0"
       refY="0"
       orient="auto"
       inkscape:stockid="StopL">
      <path
         transform="scale(0.8,0.8)"
         style="fill:none;fill-opacity:0.75;fill-rule:evenodd;stroke:#000000;stroke-width:1pt;stroke-opacity:1"
         d="M 0,5.65 0,-5.65"
         id="path8142"
         inkscape:connector-curvature="0" />
    </marker>
    <marker
       inkscape:isstock="true"
       style="overflow:visible"
       id="marker8046"
       refX="0"
       refY="0"
       orient="auto"
       inkscape:stockid="StopL">
      <path
         transform="scale(0.8,0.8)"
         style="fill:none;fill-opacity:0.75;fill-rule:evenodd;stroke:#000000;stroke-width:1pt;stroke-opacity:1"
         d="M 0,5.65 0,-5.65"
         id="path8048"
         inkscape:connector-curvature="0" />
    </marker>
    <marker
       inkscape:isstock="true"
       style="overflow:visible"
       id="marker7956"
       refX="0"
       refY="0"
       orient="auto"
       inkscape:stockid="StopL">
      <path
         transform="scale(0.8,0.8)"
         style="fill:none;fill-opacity:0.75;fill-rule:evenodd;stroke:#000000;stroke-width:1pt;stroke-opacity:1"
         d="M 0,5.65 0,-5.65"
         id="path7958"
         inkscape:connector-curvature="0" />
    </marker>
    <marker
       inkscape:isstock="true"
       style="overflow:visible"
       id="marker7870"
       refX="0"
       refY="0"
       orient="auto"
       inkscape:stockid="StopL">
      <path
         transform="scale(0.8,0.8)"
         style="fill:none;fill-opacity:0.75;fill-rule:evenodd;stroke:#000000;stroke-width:1pt;stroke-opacity:1"
         d="M 0,5.65 0,-5.65"
         id="path7872"
         inkscape:connector-curvature="0" />
    </marker>
    <marker
       inkscape:isstock="true"
       style="overflow:visible"
       id="marker7788"
       refX="0"
       refY="0"
       orient="auto"
       inkscape:stockid="StopL">
      <path
         transform="scale(0.8,0.8)"
         style="fill:none;fill-opacity:0.75;fill-rule:evenodd;stroke:#000000;stroke-width:1pt;stroke-opacity:1"
         d="M 0,5.65 0,-5.65"
         id="path7790"
         inkscape:connector-curvature="0" />
    </marker>
    <marker
       inkscape:isstock="true"
       style="overflow:visible"
       id="marker7710"
       refX="0"
       refY="0"
       orient="auto"
       inkscape:stockid="StopL">
      <path
         transform="scale(0.8,0.8)"
         style="fill:none;fill-opacity:0.75;fill-rule:evenodd;stroke:#000000;stroke-width:1pt;stroke-opacity:1"
         d="M 0,5.65 0,-5.65"
         id="path7712"
         inkscape:connector-curvature="0" />
    </marker>
    <marker
       inkscape:isstock="true"
       style="overflow:visible"
       id="marker7636"
       refX="0"
       refY="0"
       orient="auto"
       inkscape:stockid="StopL">
      <path
         transform="scale(0.8,0.8)"
         style="fill:none;fill-opacity:0.75;fill-rule:evenodd;stroke:#000000;stroke-width:1pt;stroke-opacity:1"
         d="M 0,5.65 0,-5.65"
         id="path7638"
         inkscape:connector-curvature="0" />
    </marker>
    <marker
       inkscape:isstock="true"
       style="overflow:visible"
       id="marker4741"
       refX="0"
       refY="0"
       orient="auto"
       inkscape:stockid="StopL">
      <path
         transform="scale(0.8,0.8)"
         style="fill:none;fill-opacity:0.75;fill-rule:evenodd;stroke:#9c9c9c;stroke-width:1pt;stroke-opacity:1"
         d="M 0,5.65 0,-5.65"
         id="path4743"
         inkscape:connector-curvature="0" />
    </marker>
    <marker
       inkscape:stockid="StopL"
       orient="auto"
       refY="0"
       refX="0"
       id="marker4721"
       style="overflow:visible"
       inkscape:isstock="true">
      <path
         id="path4723"
         d="M 0,5.65 0,-5.65"
         style="fill:none;fill-opacity:0.75;fill-rule:evenodd;stroke:#9c9c9c;stroke-width:1pt;stroke-opacity:1"
         transform="scale(0.8,0.8)"
         inkscape:connector-curvature="0" />
    </marker>
    <marker
       inkscape:isstock="true"
       style="overflow:visible"
       id="marker4715"
       refX="0"
       refY="0"
       orient="auto"
       inkscape:stockid="DotM">
      <path
         transform="matrix(0.4,0,0,0.4,2.96,0.4)"
         style="fill:#000000;fill-opacity:1;fill-rule:evenodd;stroke:#000000;stroke-width:1pt;stroke-opacity:1"
         d="m -2.5,-1 c 0,2.76 -2.24,5 -5,5 -2.76,0 -5,-2.24 -5,-5 0,-2.76 2.24,-5 5,-5 2.76,0 5,2.24 5,5 z"
         id="path4717"
         inkscape:connector-curvature="0" />
    </marker>
    <marker
       inkscape:isstock="true"
       style="overflow:visible"
       id="marker4705"
       refX="0"
       refY="0"
       orient="auto"
       inkscape:stockid="DotM">
      <path
         transform="matrix(0.4,0,0,0.4,2.96,0.4)"
         style="fill:#9c9c9c;fill-opacity:1;fill-rule:evenodd;stroke:#9c9c9c;stroke-width:1pt;stroke-opacity:1"
         d="m -2.5,-1 c 0,2.76 -2.24,5 -5,5 -2.76,0 -5,-2.24 -5,-5 0,-2.76 2.24,-5 5,-5 2.76,0 5,2.24 5,5 z"
         id="path4707"
         inkscape:connector-curvature="0" />
    </marker>
    <marker
       inkscape:isstock="true"
       style="overflow:visible"
       id="marker4701"
       refX="0"
       refY="0"
       orient="auto"
       inkscape:stockid="StopL">
      <path
         transform="scale(0.8,0.8)"
         style="fill:none;fill-opacity:0.75;fill-rule:evenodd;stroke:#9c9c9c;stroke-width:1pt;stroke-opacity:1"
         d="M 0,5.65 0,-5.65"
         id="path4703"
         inkscape:connector-curvature="0" />
    </marker>
    <marker
       inkscape:stockid="Arrow1Mend"
       orient="auto"
       refY="0"
       refX="0"
       id="Arrow1Mend"
       style="overflow:visible"
       inkscape:isstock="true">
      <path
         id="path4419"
         d="M 0,0 5,-5 -12.5,0 5,5 0,0 Z"
         style="fill:#000000;fill-opacity:1;fill-rule:evenodd;stroke:#000000;stroke-width:1pt;stroke-opacity:1"
         transform="matrix(-0.4,0,0,-0.4,-4,0)"
         inkscape:connector-curvature="0" />
    </marker>
    <marker
       inkscape:stockid="Arrow1Lend"
       orient="auto"
       refY="0"
       refX="0"
       id="Arrow1Lend"
       style="overflow:visible"
       inkscape:isstock="true">
      <path
         id="path4413"
         d="M 0,0 5,-5 -12.5,0 5,5 0,0 Z"
         style="fill:#000000;fill-opacity:1;fill-rule:evenodd;stroke:#000000;stroke-width:1pt;stroke-opacity:1"
         transform="matrix(-0.8,0,0,-0.8,-10,0)"
         inkscape:connector-curvature="0" />
    </marker>
  </defs>
  <sodipodi:namedview
     pagecolor="#ffffff"
     bordercolor="#666666"
     borderopacity="1"
     objecttolerance="10"
     gridtolerance="10"
     guidetolerance="10"
     inkscape:pageopacity="0"
     inkscape:pageshadow="2"
     inkscape:window-width="1920"
     inkscape:window-height="949"
     id="namedview4718"
     showgrid="false"
     inkscape:zoom="0.92439025"
     inkscape:cx="338.20569"
     inkscape:cy="271.18691"
     inkscape:window-x="9"
     inkscape:window-y="0"
     inkscape:window-maximized="0"
     inkscape:current-layer="g9209" />
  <g
     id="g9187"
     transform="translate(-50,-251)">
    <path
       inkscape:connector-curvature="0"
       d="m 86.14287,364.35626 c 9.37894,0 16.9295,7.55056 16.9295,16.9295 0,9.37894 -7.55056,16.9295 -16.9295,16.9295 -9.37895,0 -16.92951,-7.55056 -16.92951,-16.9295 0,-9.37894 7.55056,-16.9295 16.92951,-16.9295 z m 0,11.51091 c -0.56906,0 -6.32799,9.97474 -6.04346,10.46757 0.28453,0.49282 11.80238,0.49282 12.08691,0 0.28453,-0.49283 -5.47439,-10.46757 -6.04345,-10.46757 z"
       style="opacity:1;fill:none;fill-opacity:1;fill-rule:evenodd;stroke:#000000;stroke-width:2.14099455;stroke-linecap:round;stroke-linejoin:round;stroke-miterlimit:10;stroke-dasharray:none;stroke-dashoffset:0;stroke-opacity:1"
       class="launchpad-control"
       id="launchpad-cc-104" />
    <path
       inkscape:connector-curvature="0"
       d="m 127.14279,364.35626 c 9.37894,0 16.9295,7.55056 16.9295,16.9295 0,9.37894 -7.55056,16.9295 -16.9295,16.9295 -9.37894,0 -16.9295,-7.55056 -16.9295,-16.9295 0,-9.37894 7.55056,-16.9295 16.9295,-16.9295 z m 0,22.34809 c -0.56906,0 -6.32799,-9.97474 -6.04346,-10.46757 0.28453,-0.49282 11.80238,-0.49282 12.08691,0 0.28453,0.49283 -5.47439,10.46757 -6.04345,10.46757 z"
       style="opacity:1;fill:none;fill-opacity:1;fill-rule:evenodd;stroke:#000000;stroke-width:2.14099455;stroke-linecap:round;stroke-linejoin:round;stroke-miterlimit:10;stroke-dasharray:none;stroke-dashoffset:0;stroke-opacity:1"
       class="launchpad-control"
       id="launchpad-cc-105" />
  </g>
  <g
     id="g9191"
     transform="translate(-50,-295)">
    <path
       id="path9193"
       class="launchpad-control"
       style="opacity:1;fill:#dad900;fill-opacity:1;fill-rule:evenodd;stroke:#000000;stroke-width:2.14099455;stroke-linecap:round;stroke-linejoin:round;stroke-miterlimit:10;stroke-dasharray:none;stroke-dashoffset:0;stroke-opacity:1"
       d="m 86.14287,364.35626 c 9.37894,0 16.9295,7.55056 16.9295,16.9295 0,9.37894 -7.55056,16.9295 -16.9295,16.9295 -9.37895,0 -16.92951,-7.55056 -16.92951,-16.9295 0,-9.37894 7.55056,-16.9295 16.92951,-16.9295 z m 0,11.51091 c -0.56906,0 -6.32799,9.97474 -6.04346,10.46757 0.28453,0.49282 11.80238,0.49282 12.08691,0 0.28453,-0.49283 -5.47439,-10.46757 -6.04345,-10.46757 z"
       inkscape:connector-curvature="0" />
    <path
       id="path9195"
       class="launchpad-control"
       style="opacity:1;fill:none;fill-opacity:1;fill-rule:evenodd;stroke:#000000;stroke-width:2.14099455;stroke-linecap:round;stroke-linejoin:round;stroke-miterlimit:10;stroke-dasharray:none;stroke-dashoffset:0;stroke-opacity:1"
       d="m 127.14279,364.35626 c 9.37894,0 16.9295,7.55056 16.9295,16.9295 0,9.37894 -7.55056,16.9295 -16.9295,16.9295 -9.37894,0 -16.9295,-7.55056 -16.9295,-16.9295 0,-9.37894 7.55056,-16.9295 16.9295,-16.9295 z m 0,22.34809 c -0.56906,0 -6.32799,-9.97474 -6.04346,-10.46757 0.28453,-0.49282 11.80238,-0.49282 12.08691,0 0.28453,0.49283 -5.47439,10.46757 -6.04345,10.46757 z"
       inkscape:connector-curvature="0" />
  </g>
  <g
     transform="translate(-50,-339)"
     id="g9197">
    <path
       inkscape:connector-curvature="0"
       d="m 86.14287,364.35626 c 9.37894,0 16.9295,7.55056 16.9295,16.9295 0,9.37894 -7.55056,16.9295 -16.9295,16.9295 -9.37895,0 -16.92951,-7.55056 -16.92951,-16.9295 0,-9.37894 7.55056,-16.9295 16.92951,-16.9295 z m 0,11.51091 c -0.56906,0 -6.32799,9.97474 -6.04346,10.46757 0.28453,0.49282 11.80238,0.49282 12.08691,0 0.28453,-0.49283 -5.47439,-10.46757 -6.04345,-10.46757 z"
       style="opacity:1;fill:#da1300;fill-opacity:1;fill-rule:evenodd;stroke:#000000;stroke-width:2.14099455;stroke-linecap:round;stroke-linejoin:round;stroke-miterlimit:10;stroke-dasharray:none;stroke-dashoffset:0;stroke-opacity:1"
       class="launchpad-control"
       id="path9199" />
    <path
       inkscape:connector-curvature="0"
       d="m 127.14279,364.35626 c 9.37894,0 16.9295,7.55056 16.9295,16.9295 0,9.37894 -7.55056,16.9295 -16.9295,16.9295 -9.37894,0 -16.9295,-7.55056 -16.9295,-16.9295 0,-9.37894 7.55056,-16.9295 16.9295,-16.9295 z m 0,22.34809 c -0.56906,0 -6.32799,-9.97474 -6.04346,-10.46757 0.28453,-0.49282 11.80238,-0.49282 12.08691,0 0.28453,0.49283 -5.47439,10.46757 -6.04345,10.46757 z"
       style="opacity:1;fill:none;fill-opacity:1;fill-rule:evenodd;stroke:#000000;stroke-width:2.14099455;stroke-linecap:round;stroke-linejoin:round;stroke-miterlimit:10;stroke-dasharray:none;stroke-dashoffset:0;stroke-opacity:1"
       class="launchpad-control"
       id="path9201" />
  </g>
  <g
     id="g9203"
     transform="translate(-50,-207)">
    <path
       id="path9205"
       class="launchpad-control"
       style="opacity:1;fill:none;fill-opacity:1;fill-rule:evenodd;stroke:#000000;stroke-width:2.14099455;stroke-linecap:round;stroke-linejoin:round;stroke-miterlimit:10;stroke-dasharray:none;stroke-dashoffset:0;stroke-opacity:1"
       d="m 86.14287,364.35626 c 9.37894,0 16.9295,7.55056 16.9295,16.9295 0,9.37894 -7.55056,16.9295 -16.9295,16.9295 -9.37895,0 -16.92951,-7.55056 -16.92951,-16.9295 0,-9.37894 7.55056,-16.9295 16.92951,-16.9295 z m 0,11.51091 c -0.56906,0 -6.32799,9.97474 -6.04346,10.46757 0.28453,0.49282 11.80238,0.49282 12.08691,0 0.28453,-0.49283 -5.47439,-10.46757 -6.04345,-10.46757 z"
       inkscape:connector-curvature="0" />
    <path
       id="path9207"
       class="launchpad-control"
       style="opacity:1;fill:#dad900;fill-opacity:1;fill-rule:evenodd;stroke:#000000;stroke-width:2.14099455;stroke-linecap:round;stroke-linejoin:round;stroke-miterlimit:10;stroke-dasharray:none;stroke-dashoffset:0;stroke-opacity:1"
       d="m 127.14279,364.35626 c 9.37894,0 16.9295,7.55056 16.9295,16.9295 0,9.37894 -7.55056,16.9295 -16.9295,16.9295 -9.37894,0 -16.9295,-7.55056 -16.9295,-16.9295 0,-9.37894 7.55056,-16.9295 16.9295,-16.9295 z m 0,22.34809 c -0.56906,0 -6.32799,-9.97474 -6.04346,-10.46757 0.28453,-0.49282 11.80238,-0.49282 12.08691,0 0.28453,0.49283 -5.47439,10.46757 -6.04345,10.46757 z"
       inkscape:connector-curvature="0" />
  </g>
  <g
     transform="translate(0,-477)"
     id="g9209">
    <path
       inkscape:connector-curvature="0"
       d="m 36.14287,678.35626 c 9.37894,0 16.9295,7.55056 16.9295,16.9295 0,9.37894 -7.55056,16.9295 -16.9295,16.9295 -9.37895,0 -16.92951,-7.55056 -16.92951,-16.9295 0,-9.37894 7.55056,-16.9295 16.92951,-16.9295 z m 0,11.51091 c -0.56906,0 -6.32799,9.97474 -6.04346,10.46757 0.28453,0.49282 11.80238,0.49282 12.08691,0 0.28453,-0.49283 -5.47439,-10.46757 -6.04345,-10.46757 z"
       style="opacity:1;fill:none;fill-opacity:1;fill-rule:evenodd;stroke:#000000;stroke-width:2.14099455;stroke-linecap:round;stroke-linejoin:round;stroke-miterlimit:10;stroke-dasharray:none;stroke-dashoffset:0;stroke-opacity:1"
       class="launchpad-control"
       id="path9211" />
    <path
       inkscape:connector-curvature="0"
       d="m 77.14279,678.35626 c 9.37894,0 16.9295,7.55056 16.9295,16.9295 0,9.37894 -7.55056,16.9295 -16.9295,16.9295 -9.37894,0 -16.9295,-7.55056 -16.9295,-16.9295 0,-9.37894 7.55056,-16.9295 16.9295,-16.9295 z m 0,22.34809 c -0.56906,0 -6.32799,-9.97474 -6.04346,-10.46757 0.28453,-0.49282 11.80238,-0.49282 12.08691,0 0.28453,0.49283 -5.47439,10.46757 -6.04345,10.46757 z"
       style="opacity:1;fill:#da0000;fill-opacity:1;fill-rule:evenodd;stroke:#000000;stroke-width:2.14099455;stroke-linecap:round;stroke-linejoin:round;stroke-miterlimit:10;stroke-dasharray:none;stroke-dashoffset:0;stroke-opacity:1"
       class="launchpad-control"
       id="path9213" />
    <text
       xml:space="preserve"
       style="font-style:normal;font-weight:normal;font-size:17.5px;line-height:125%;font-family:Sans;letter-spacing:0px;word-spacing:0px;fill:#000000;fill-opacity:1;stroke:none;stroke-width:1px;stroke-linecap:butt;stroke-linejoin:miter;stroke-opacity:1"
       x="111.45778"
       y="523.63196"
       id="text9215"
       sodipodi:linespacing="125%"><tspan
         sodipodi:role="line"
         id="tspan9217"
         x="111.45778"
         y="523.63196">+2 Octaves</tspan></text>
    <text
       sodipodi:linespacing="125%"
       id="text9219"
       y="567.63196"
       x="111.45778"
       style="font-style:normal;font-weight:normal;font-size:17.5px;line-height:125%;font-family:Sans;letter-spacing:0px;word-spacing:0px;fill:#000000;fill-opacity:1;stroke:none;stroke-width:1px;stroke-linecap:butt;stroke-linejoin:miter;stroke-opacity:1"
       xml:space="preserve"><tspan
         y="567.63196"
         x="111.45778"
         id="tspan9221"
         sodipodi:role="line">+1 Octave</tspan></text>
    <text
       xml:space="preserve"
       style="font-style:normal;font-weight:normal;font-size:17.5px;line-height:125%;font-family:Sans;letter-spacing:0px;word-spacing:0px;fill:#000000;fill-opacity:1;stroke:none;stroke-width:1px;stroke-linecap:butt;stroke-linejoin:miter;stroke-opacity:1"
       x="111.45778"
       y="613.63196"
       id="text9223"
       sodipodi:linespacing="125%"><tspan
         sodipodi:role="line"
         id="tspan9225"
         x="111.45778"
         y="613.63196">Default Tuning</tspan></text>
    <text
       sodipodi:linespacing="125%"
       id="text9227"
       y="657.63196"
       x="111.45778"
       style="font-style:normal;font-weight:normal;font-size:17.5px;line-height:125%;font-family:Sans;letter-spacing:0px;word-spacing:0px;fill:#000000;fill-opacity:1;stroke:none;stroke-width:1px;stroke-linecap:butt;stroke-linejoin:miter;stroke-opacity:1"
       xml:space="preserve"><tspan
         y="657.63196"
         x="111.45778"
         id="tspan9229"
         sodipodi:role="line">-1 Octave1</tspan></text>
    <text
       xml:space="preserve"
       style="font-style:normal;font-weight:normal;font-size:17.5px;line-height:125%;font-family:Sans;letter-spacing:0px;word-spacing:0px;fill:#000000;fill-opacity:1;stroke:none;stroke-width:1px;stroke-linecap:butt;stroke-linejoin:miter;stroke-opacity:1"
       x="111.45778"
       y="703.63196"
       id="text9231"
       sodipodi:linespacing="125%"><tspan
         sodipodi:role="line"
         id="tspan9233"
         x="111.45778"
         y="703.63196">-2 Octaves</tspan></text>
  </g>
</svg>
